<?xml version="1.0" encoding="iso-8859-1"?>
<!-- Generator: Adobe Illustrator 16.0.0, SVG Export Plug-In . SVG Version: 6.00 Build 0)  -->
<!DOCTYPE svg PUBLIC "-//W3C//DTD SVG 1.1//EN" "http://www.w3.org/Graphics/SVG/1.1/DTD/svg11.dtd">
<svg version="1.1" id="Capa_1" xmlns="http://www.w3.org/2000/svg" xmlns:xlink="http://www.w3.org/1999/xlink" x="0px" y="0px"
	 viewBox="0 0 501.195 501.195" style="enable-background:new 0 0 501.195 501.195;"
	 xml:space="preserve">
<g>
	<path d="M238.868,235.641l-23.979-6.624l-14.528-23.639l-7.809,7.812c-28.625-13.398-63.842-8.296-87.444,15.308l-82.512,82.526
		c-30.129,30.123-30.129,79.144-0.006,109.265c30.124,30.124,79.142,30.124,109.265-0.005l82.524-82.519
		c24.63-24.624,29.1-61.866,13.466-91.103L238.868,235.641z M189.16,312.555l-82.518,82.518c-16.226,16.225-42.611,16.225-58.836,0
		s-16.225-42.61,0-58.835l82.523-82.526c9.183-9.179,21.626-13.157,33.643-11.942l-22.031,22.036
		c-9.478,9.472-9.478,24.897,0,34.386c9.473,9.478,24.903,9.478,34.386-0.006l24.001-24
		C203.25,287.591,199.562,302.153,189.16,312.555z M496.282,108.466c-14.945-39.888-59.569-60.184-99.453-45.234l-109.294,40.943
		c-31.256,11.711-50.483,41.643-50.14,73.247l-20.278,7.592l3.25,26.039l20.372,17.034l12.509-4.689
		c20.139,26.342,55.896,37.688,88.504,25.467l109.281-40.943C490.931,192.981,511.224,148.368,496.282,108.466z M438.52,174.535
		l-109.281,40.944c-13.774,5.161-28.561,2.493-39.548-5.726l19.644-7.357c12.556-4.707,18.938-18.745,14.24-31.294
		c-4.707-12.556-18.741-18.944-31.296-14.244l-17.034,6.389c3.862-11.442,12.64-21.125,24.799-25.68L409.33,96.622
		c21.486-8.052,45.506,2.881,53.56,24.364C470.928,142.463,460.002,166.491,438.52,174.535z M248.433,235.602l33.307,19.786
		l-12.649,46.321l-9.381-2.559l10.698-39.177l-31.689-18.831L248.433,235.602z M170.895,183.389l-19.732-37.138l8.591-4.562
		l17.389,32.717l18.692,2.49l12.569,20.446l-7.076,7.07l-11.365-18.49L170.895,183.389z"/>
</g>
<g>
</g>
<g>
</g>
<g>
</g>
<g>
</g>
<g>
</g>
<g>
</g>
<g>
</g>
<g>
</g>
<g>
</g>
<g>
</g>
<g>
</g>
<g>
</g>
<g>
</g>
<g>
</g>
<g>
</g>
</svg>
