<?xml version="1.0" standalone="no"?>
<!DOCTYPE svg PUBLIC "-//W3C//DTD SVG 20010904//EN"
 "http://www.w3.org/TR/2001/REC-SVG-20010904/DTD/svg10.dtd">
<svg version="1.0" xmlns="http://www.w3.org/2000/svg"
 viewBox="0 0 512.000000 512.000000"
 preserveAspectRatio="xMidYMid meet">

<g transform="translate(0.000000,512.000000) scale(0.100000,-0.100000)"
fill="#000000" stroke="none">
<path d="M2464 4714 c-58 -21 -120 -77 -151 -138 -32 -61 -37 -167 -11 -228
23 -51 90 -121 138 -143 l40 -18 2 -99 c1 -128 0 -120 22 -142 26 -26 83 -26
109 -1 25 23 24 14 26 143 l1 99 40 18 c48 22 115 92 138 143 26 61 21 167
-11 228 -64 126 -211 185 -343 138z"/>
<path d="M2347 3838 c-8 -4 -27 -8 -43 -8 -41 0 -86 -6 -104 -13 -8 -3 -22 -6
-30 -6 -30 -2 -56 -7 -68 -15 -6 -4 -16 -5 -21 -1 -5 3 -13 0 -16 -6 -4 -5
-13 -8 -21 -5 -7 3 -16 1 -20 -5 -3 -6 -12 -8 -19 -5 -7 2 -18 -1 -24 -7 -6
-6 -11 -7 -11 -3 0 5 -7 3 -15 -4 -8 -7 -15 -9 -15 -5 0 4 -7 2 -15 -5 -8 -7
-15 -9 -15 -5 0 4 -7 2 -15 -5 -8 -7 -15 -9 -15 -5 0 4 -7 2 -15 -5 -8 -7 -15
-9 -15 -5 0 4 -6 2 -13 -4 -8 -6 -17 -8 -20 -4 -4 3 -7 0 -7 -7 0 -7 -3 -10
-6 -7 -4 3 -16 1 -28 -5 -11 -7 -24 -11 -28 -10 -5 1 -8 -3 -8 -9 0 -5 -4 -7
-10 -4 -5 3 -10 1 -10 -4 0 -6 -3 -10 -8 -9 -12 5 -92 -34 -92 -44 0 -5 -4 -6
-10 -3 -5 3 -10 1 -10 -5 0 -6 -4 -8 -10 -5 -5 3 -10 1 -10 -5 0 -6 -4 -8 -10
-5 -5 3 -10 1 -10 -4 0 -6 -7 -11 -15 -11 -8 0 -15 -5 -15 -11 0 -5 -4 -8 -9
-5 -5 3 -12 -1 -15 -10 -3 -8 -10 -12 -16 -9 -5 3 -10 1 -10 -4 0 -6 -7 -11
-15 -11 -8 0 -15 -4 -15 -10 0 -5 -6 -10 -14 -10 -8 0 -17 -7 -20 -16 -3 -8
-10 -13 -15 -9 -6 3 -15 -4 -21 -15 -6 -11 -15 -18 -20 -15 -5 3 -14 -4 -20
-15 -6 -11 -17 -20 -25 -20 -7 0 -23 -13 -35 -30 -12 -16 -27 -30 -33 -30 -16
0 -130 -114 -122 -122 3 -3 -10 -17 -30 -32 -19 -15 -33 -31 -30 -36 3 -4 -7
-15 -20 -24 -14 -9 -23 -21 -20 -27 4 -5 -1 -12 -9 -15 -9 -3 -16 -12 -16 -19
0 -7 -7 -16 -16 -19 -8 -3 -13 -10 -10 -15 3 -5 -1 -12 -10 -15 -8 -3 -12 -10
-9 -16 3 -5 1 -10 -4 -10 -6 0 -11 -7 -11 -15 0 -8 -5 -15 -11 -15 -5 0 -7 -4
-4 -10 3 -5 1 -10 -4 -10 -6 0 -11 -7 -11 -15 0 -8 -5 -15 -11 -15 -5 0 -7 -4
-4 -10 3 -5 1 -10 -5 -10 -6 0 -8 -4 -5 -10 3 -5 1 -10 -5 -10 -6 0 -8 -4 -5
-10 3 -5 1 -10 -5 -10 -6 0 -8 -4 -5 -10 3 -5 1 -10 -5 -10 -6 0 -8 -4 -5 -10
3 -5 1 -10 -4 -10 -6 0 -10 -3 -9 -7 1 -5 -3 -18 -10 -29 -6 -12 -8 -24 -5
-28 3 -3 1 -6 -6 -6 -7 0 -9 -5 -5 -12 4 -6 -3 -4 -17 5 -32 23 -216 24 -259
2 -62 -32 -60 -20 -60 -473 0 -372 2 -417 17 -443 26 -44 69 -59 166 -59 96 0
118 -5 110 -26 -3 -8 0 -14 6 -14 6 0 8 -7 4 -17 -5 -11 -3 -14 6 -8 10 5 12
2 7 -11 -3 -11 -1 -26 4 -34 5 -8 10 -10 10 -5 1 12 39 -56 39 -70 0 -5 -6 1
-14 15 -8 14 -14 21 -14 15 -1 -15 17 -40 28 -40 5 0 29 -29 52 -65 24 -36 84
-106 134 -155 228 -229 560 -373 1030 -447 125 -20 178 -22 495 -22 317 0 370
2 495 22 357 56 630 152 850 297 87 58 215 170 215 188 0 7 9 18 20 24 20 13
79 90 124 163 15 25 25 37 22 28 -11 -35 3 -17 24 29 11 26 18 53 15 60 -3 9
0 11 6 7 8 -4 9 1 4 16 -5 16 -4 20 5 15 9 -5 10 -2 6 12 -6 19 -2 21 90 22
108 2 150 15 182 56 22 27 22 32 22 444 0 456 2 444 -60 476 -43 22 -227 21
-259 -2 -14 -9 -21 -11 -17 -5 4 7 2 12 -5 12 -7 0 -9 3 -6 6 3 4 1 16 -5 28
-7 11 -11 24 -10 29 1 4 -3 7 -9 7 -5 0 -7 5 -4 10 3 6 1 10 -5 10 -6 0 -8 5
-5 10 3 6 1 10 -5 10 -6 0 -8 5 -5 10 3 6 1 10 -5 10 -6 0 -8 5 -5 10 3 6 1
10 -5 10 -6 0 -8 5 -5 10 3 6 1 10 -4 10 -6 0 -11 7 -11 15 0 8 -5 15 -11 15
-5 0 -7 5 -4 10 3 6 1 10 -4 10 -6 0 -11 7 -11 15 0 8 -5 15 -11 15 -5 0 -7 5
-4 10 3 6 -1 13 -9 16 -9 3 -13 10 -10 15 3 5 -2 12 -10 15 -9 3 -16 12 -16
19 0 7 -7 16 -16 19 -8 3 -13 10 -9 15 3 6 -6 18 -20 27 -13 9 -23 20 -20 24
3 5 -11 21 -30 36 -20 15 -33 29 -30 32 8 8 -106 122 -122 122 -6 0 -21 14
-33 30 -12 17 -28 30 -35 30 -8 0 -19 9 -25 20 -6 11 -15 18 -20 15 -5 -3 -14
4 -20 15 -6 11 -15 18 -21 15 -5 -4 -12 1 -15 9 -3 9 -12 16 -20 16 -8 0 -14
5 -14 10 0 6 -7 10 -15 10 -8 0 -15 5 -15 11 0 5 -5 7 -10 4 -6 -3 -13 1 -16
9 -3 9 -10 13 -15 10 -5 -3 -9 0 -9 5 0 6 -7 11 -15 11 -8 0 -15 5 -15 11 0 5
-4 7 -10 4 -5 -3 -10 -1 -10 5 0 6 -4 8 -10 5 -5 -3 -10 -1 -10 5 0 6 -4 8
-10 5 -5 -3 -10 -2 -10 3 0 10 -80 49 -92 45 -5 -2 -8 2 -8 8 0 5 -4 7 -10 4
-5 -3 -10 -1 -10 4 0 6 -3 10 -7 9 -5 -1 -18 3 -29 10 -12 6 -24 8 -28 5 -3
-3 -6 -1 -6 5 0 7 -3 11 -7 11 -5 -1 -11 0 -15 1 -5 1 -12 4 -18 5 -5 1 -12 4
-15 5 -3 1 -9 4 -15 5 -5 1 -12 4 -15 5 -3 1 -9 4 -15 5 -5 1 -12 4 -15 5 -3
1 -9 4 -15 5 -5 1 -12 4 -15 5 -3 1 -9 3 -14 4 -5 0 -12 4 -16 8 -4 4 -13 4
-20 2 -7 -3 -16 -1 -19 5 -4 6 -13 8 -20 5 -8 -3 -17 0 -21 5 -3 6 -11 9 -16
6 -5 -4 -15 -3 -21 1 -12 8 -38 13 -68 15 -8 0 -22 3 -30 6 -8 4 -26 8 -40 9
-14 2 -45 6 -70 9 -75 8 -449 11 -463 3z m-521 -1009 c3 -6 15 -9 25 -6 11 3
19 1 19 -5 0 -6 7 -8 15 -4 8 3 15 1 15 -5 0 -6 5 -7 10 -4 6 3 10 1 10 -5 0
-6 5 -8 10 -5 6 3 10 1 10 -6 0 -7 3 -9 7 -6 3 4 12 -2 20 -13 8 -11 21 -20
29 -20 8 0 19 -11 24 -25 5 -14 14 -25 20 -25 5 0 10 -7 10 -15 0 -8 5 -15 11
-15 5 0 7 -4 4 -10 -3 -5 -1 -10 5 -10 6 0 9 -3 7 -7 -3 -5 0 -19 5 -33 23
-56 27 -190 5 -190 -5 0 -7 -7 -3 -15 3 -8 1 -15 -5 -15 -6 0 -7 -4 -4 -10 3
-5 1 -10 -5 -10 -6 0 -8 -4 -5 -10 3 -5 1 -10 -5 -10 -6 0 -9 -4 -6 -9 3 -5
-1 -12 -10 -15 -8 -3 -13 -10 -10 -14 3 -5 -8 -22 -24 -37 -17 -16 -30 -25
-30 -19 0 5 -7 0 -15 -10 -8 -11 -15 -16 -15 -12 0 4 -13 -2 -30 -14 -16 -12
-30 -18 -30 -14 0 3 -6 1 -13 -5 -8 -6 -17 -8 -20 -5 -3 3 -11 3 -18 -2 -17
-10 -120 -11 -126 -1 -3 5 -11 6 -19 3 -7 -3 -16 -1 -19 5 -4 5 -11 7 -16 4
-5 -4 -9 -1 -9 5 0 6 -4 8 -10 5 -5 -3 -10 -1 -10 5 0 6 -4 8 -10 5 -5 -3 -10
-1 -10 4 0 6 -4 11 -9 11 -11 0 -91 80 -91 91 0 5 -5 9 -11 9 -5 0 -7 5 -4 10
3 6 1 10 -5 10 -6 0 -8 5 -5 10 3 6 1 10 -5 10 -6 0 -9 4 -5 9 3 5 1 12 -5 16
-6 4 -8 11 -5 16 4 5 3 14 0 20 -10 15 -10 122 -1 137 4 7 5 16 1 21 -3 5 -1
12 5 16 6 4 8 11 5 16 -4 5 -1 9 5 9 6 0 8 5 5 10 -3 6 -1 10 5 10 6 0 9 4 6
9 -3 5 1 12 9 15 8 3 14 9 13 13 -3 9 63 77 74 78 4 0 16 8 28 17 11 10 20 15
20 12 0 -4 7 -1 15 6 8 7 15 9 15 5 0 -4 6 -2 13 4 8 6 16 8 20 5 3 -3 14 -1
24 5 24 14 90 14 99 0z m1589 -3 c11 -2 21 -5 23 -6 1 -2 7 -4 12 -5 6 -1 12
-3 15 -4 3 0 6 0 8 1 1 1 12 -7 25 -17 12 -11 26 -20 31 -20 12 0 76 -68 73
-78 -1 -4 5 -10 13 -13 8 -3 12 -10 9 -15 -3 -5 0 -9 6 -9 6 0 8 -4 5 -10 -3
-5 -1 -10 5 -10 6 0 9 -4 5 -9 -3 -5 -1 -12 5 -16 6 -4 8 -11 5 -16 -4 -5 -3
-14 1 -21 9 -15 9 -122 -1 -137 -3 -6 -4 -15 0 -20 3 -5 1 -12 -5 -16 -6 -4
-8 -11 -5 -16 4 -5 1 -9 -5 -9 -6 0 -8 -4 -5 -10 3 -5 1 -10 -5 -10 -6 0 -8
-4 -5 -10 3 -5 1 -10 -4 -10 -6 0 -11 -4 -11 -9 0 -11 -80 -91 -91 -91 -5 0
-9 -5 -9 -11 0 -5 -4 -7 -10 -4 -5 3 -10 1 -10 -5 0 -6 -4 -8 -10 -5 -5 3 -10
1 -10 -5 0 -6 -4 -9 -9 -5 -5 3 -12 1 -16 -4 -3 -6 -12 -8 -19 -5 -8 3 -16 2
-19 -3 -6 -10 -109 -9 -126 1 -7 5 -15 5 -18 2 -3 -3 -12 -1 -20 5 -7 6 -13 8
-13 5 0 -4 -13 2 -30 14 -16 12 -30 18 -30 14 0 -4 -7 1 -15 12 -8 10 -15 15
-15 10 0 -6 -13 3 -30 19 -16 15 -27 32 -24 37 3 4 -2 11 -10 14 -9 3 -13 10
-10 15 3 5 0 9 -6 9 -6 0 -8 5 -5 10 3 6 1 10 -5 10 -6 0 -8 5 -5 10 3 6 2 10
-4 10 -6 0 -8 7 -5 15 4 8 2 15 -3 15 -22 0 -18 134 5 190 5 14 8 28 5 33 -2
4 1 7 7 7 6 0 8 5 5 10 -3 6 -1 10 4 10 6 0 11 7 11 15 0 8 5 15 10 15 6 0 15
11 20 25 5 14 16 25 24 25 8 0 21 9 29 20 8 11 17 17 20 13 4 -3 7 -1 7 6 0 7
5 9 10 6 6 -3 10 -1 10 5 0 6 5 8 10 5 6 -3 10 -2 10 4 0 6 7 8 15 5 8 -4 15
-2 15 4 0 6 8 8 19 5 10 -3 22 1 26 7 7 11 59 9 120 -4z m-2688 -428 c-3 -8
-6 -5 -6 6 -1 11 2 17 5 13 3 -3 4 -12 1 -19z m3670 0 c-3 -8 -6 -5 -6 6 -1
11 2 17 5 13 3 -3 4 -12 1 -19z m-3680 -95 c-3 -10 -5 -4 -5 12 0 17 2 24 5
18 2 -7 2 -21 0 -30z m3690 0 c-3 -10 -5 -4 -5 12 0 17 2 24 5 18 2 -7 2 -21
0 -30z m-3690 -260 c-3 -10 -5 -4 -5 12 0 17 2 24 5 18 2 -7 2 -21 0 -30z
m3690 0 c-3 -10 -5 -4 -5 12 0 17 2 24 5 18 2 -7 2 -21 0 -30z m-3680 -75 c-3
-8 -6 -5 -6 6 -1 11 2 17 5 13 3 -3 4 -12 1 -19z m3670 0 c-3 -8 -6 -5 -6 6
-1 11 2 17 5 13 3 -3 4 -12 1 -19z m-1303 -320 c-1 -24 -5 -51 -9 -60 -4 -9
-4 -22 0 -28 3 -5 1 -10 -5 -10 -7 0 -10 -7 -7 -15 4 -8 2 -17 -4 -20 -5 -4
-7 -11 -4 -16 4 -5 1 -9 -5 -9 -6 0 -8 -4 -5 -10 3 -5 1 -10 -5 -10 -6 0 -8
-4 -5 -10 3 -5 1 -10 -5 -10 -6 0 -8 -4 -5 -10 3 -5 1 -10 -5 -10 -6 0 -9 -4
-6 -9 3 -5 -1 -12 -10 -15 -8 -3 -13 -10 -10 -15 3 -5 -1 -11 -9 -15 -8 -3
-15 -11 -15 -19 0 -15 -80 -96 -80 -82 -1 6 -9 0 -19 -12 -10 -12 -21 -19 -25
-16 -3 3 -8 -2 -12 -11 -3 -9 -10 -13 -15 -10 -5 3 -9 0 -9 -6 0 -6 -4 -8 -10
-5 -5 3 -10 1 -10 -5 0 -6 -4 -8 -10 -5 -5 3 -10 1 -10 -5 0 -6 -4 -9 -9 -5
-5 3 -12 1 -16 -5 -4 -6 -10 -8 -15 -5 -5 3 -11 1 -15 -4 -3 -6 -12 -8 -20 -4
-8 3 -15 0 -15 -7 0 -7 -8 -9 -20 -5 -11 3 -25 3 -32 -1 -17 -11 -149 -11
-155 -1 -3 5 -16 6 -29 3 -15 -4 -24 -2 -24 5 0 6 -7 9 -15 6 -8 -4 -17 -2
-20 4 -4 5 -10 7 -15 4 -5 -3 -11 -1 -15 5 -4 6 -11 8 -16 5 -5 -4 -9 -1 -9 5
0 6 -4 8 -10 5 -5 -3 -10 -1 -10 5 0 6 -4 8 -10 5 -5 -3 -10 -1 -10 5 0 6 -4
9 -9 6 -5 -3 -12 1 -15 10 -4 9 -9 14 -12 11 -4 -3 -15 4 -25 16 -10 12 -18
18 -19 12 0 -14 -80 67 -80 82 0 8 -7 16 -15 19 -8 4 -12 10 -9 15 3 5 -2 12
-10 15 -9 3 -13 10 -10 15 3 5 0 9 -6 9 -6 0 -8 5 -5 10 3 6 1 10 -5 10 -6 0
-8 5 -5 10 3 6 1 10 -5 10 -6 0 -8 5 -5 10 3 6 1 10 -5 10 -6 0 -9 4 -5 9 3 5
1 12 -4 16 -6 3 -8 12 -4 20 3 8 0 15 -7 15 -6 0 -8 5 -5 10 4 6 4 19 0 28 -4
9 -8 36 -9 60 l-2 42 536 0 536 0 -2 -42z"/>
</g>
</svg>
